<svg xmlns="http://www.w3.org/2000/svg" width="1024" height="1024" viewBox="0 0 1024 1024" role="img" aria-label="OneGLP"><title>OneGLP</title><rect width="1024" height="1024" rx="238" fill="#163E32"/><g transform="translate(0 0) scale(3.16) translate(-148 -105)"><path d="M 293.841 151.047 C 253.511 156.643, 222.102 191.907, 222.017 231.685 C 221.953 262.122, 241.555 292.184, 269.536 304.558 C 282.358 310.229, 287.974 311.188, 312.500 311.900 C 334.362 312.535, 335.774 312.695, 341.046 315.135 C 348.358 318.520, 352.957 322.687, 356.549 329.181 C 360.577 336.462, 360.798 347.959, 357.051 355.293 C 349.359 370.349, 331.938 378, 305.347 378 C 280.291 378, 263.837 370.975, 257.046 357.377 C 251.849 346.972, 253.281 338.051, 261.586 329.080 C 267.977 322.178, 269.081 318.411, 266.298 313.014 C 265.309 311.097, 263.375 308.966, 262 308.279 C 258.650 306.605, 252.532 306.674, 249.148 308.423 C 244.689 310.729, 238.052 318.664, 234.838 325.532 C 220.710 355.723, 241.623 391.158, 278.500 399.512 C 288.272 401.725, 312.707 402.564, 323.133 401.044 C 364.520 395.010, 389.936 365.562, 382.895 331.799 C 380.284 319.280, 370.225 305.025, 359.801 299.071 L 354.980 296.318 360.973 291.105 C 378.386 275.960, 388 254.665, 388 231.243 C 388 217.297, 385.651 207.626, 379.168 194.880 C 373.584 183.902, 373.691 182, 379.892 182 C 385.812 182, 392.107 178.185, 394.750 172.994 C 397.545 167.506, 397.573 164.815, 394.895 159.282 C 389.646 148.439, 373.148 148.274, 367.118 159.004 C 364.773 163.176, 364.450 167.125, 366.074 171.782 C 367.104 174.736, 366.725 175.435, 356.917 188.682 C 343.764 206.446, 334.289 216.002, 325.884 219.979 C 315.918 224.695, 314.095 224.769, 309.708 220.631 C 304.633 215.845, 298.821 214.940, 292.576 217.963 C 288.215 220.075, 284 225.120, 284 228.229 C 284 229.123, 281.725 230.593, 278.338 231.889 C 271.170 234.632, 261.138 241.758, 256.307 247.537 C 254.255 249.992, 252.258 252, 251.869 252 C 249.978 252, 247.601 240.989, 247.552 232 C 247.417 207.282, 263.178 185.760, 287.172 177.900 C 297.514 174.513, 313.449 174.483, 323.500 177.833 C 329.856 179.951, 337.152 183.659, 342.544 187.510 C 344.485 188.897, 344.924 188.496, 351.294 179.535 C 354.982 174.346, 358 169.681, 358 169.169 C 358 167.622, 351.410 163.089, 343.152 158.956 C 329.443 152.094, 309.429 148.884, 293.841 151.047 M 352.032 214.057 C 343.332 224.060, 330.967 231.744, 318.423 234.944 C 315.436 235.706, 313.697 236.965, 311.923 239.652 C 306.809 247.394, 296.840 249.166, 289.574 243.624 C 286.199 241.050, 285.925 241.004, 282.486 242.441 C 276.413 244.979, 267.232 252.016, 262.508 257.754 C 260.028 260.766, 258 263.675, 258 264.219 C 258 266.240, 270.102 276.959, 276.294 280.422 C 322.042 306.005, 376.192 263.921, 360.964 214.618 C 359.840 210.978, 358.555 208, 358.110 208 C 357.664 208, 354.929 210.726, 352.032 214.057" fill="#F4F0E6" fill-rule="evenodd"/></g></svg>